<svg width="29" height="29" viewBox="0 0 29 29" fill="none" xmlns="http://www.w3.org/2000/svg">
<path d="M17.4502 12C17.4502 10.8954 18.3456 10 19.4502 10H26.8502C27.9548 10 28.8502 10.8954 28.8502 12V27C28.8502 28.1046 27.9548 29 26.8502 29H19.4502C18.3456 29 17.4502 28.1046 17.4502 27V12Z" fill="url(#paint0_linear_1_3556)"/>
<path d="M0.350098 2C0.350098 0.89543 1.24553 0 2.3501 0H19.1657C20.2702 0 21.1657 0.895431 21.1657 2V27.1077C21.1657 28.1528 20.3184 29 19.2733 29C8.82232 29 0.350098 20.5278 0.350098 10.0768V2Z" fill="url(#paint1_linear_1_3556)"/>
<path d="M7 6C7 5.44772 7.44772 5 8 5H16.45C17.0023 5 17.45 5.44772 17.45 6C17.45 6.55228 17.0023 7 16.45 7H8C7.44771 7 7 6.55228 7 6Z" fill="white"/>
<path d="M7 12C7 11.4477 7.44772 11 8 11H16.45C17.0023 11 17.45 11.4477 17.45 12C17.45 12.5523 17.0023 13 16.45 13H8C7.44771 13 7 12.5523 7 12Z" fill="white"/>
<path d="M7 18C7 17.4477 7.44772 17 8 17H16.45C17.0023 17 17.45 17.4477 17.45 18C17.45 18.5523 17.0023 19 16.45 19H8C7.44771 19 7 18.5523 7 18Z" fill="white"/>
<defs>
<linearGradient id="paint0_linear_1_3556" x1="23.1502" y1="10" x2="23.1502" y2="29" gradientUnits="userSpaceOnUse">
<stop stop-color="#FF8989"/>
<stop offset="1" stop-color="#FF6969"/>
</linearGradient>
<linearGradient id="paint1_linear_1_3556" x1="10.7579" y1="0" x2="10.7579" y2="29" gradientUnits="userSpaceOnUse">
<stop stop-color="#7961DB"/>
<stop offset="1" stop-color="#9899FF"/>
</linearGradient>
</defs>
</svg>
