<svg width="327" height="123" viewBox="0 0 327 123" fill="none" xmlns="http://www.w3.org/2000/svg">
<path d="M36.7898 122.893H0L24.5265 0.26001H142.604C145.875 0.26001 148.853 0.960769 151.539 2.36229C154.342 3.64701 156.619 5.4573 158.371 7.79317C160.24 10.0122 161.583 12.5817 162.401 15.5015C163.218 18.4213 163.335 21.458 162.751 24.6114L153.291 71.7374C152.357 76.6427 150.021 80.6136 146.283 83.6503C142.546 86.6869 138.225 88.2052 133.319 88.2052H125.436L141.028 122.893H104.238L88.6459 88.2052H43.7974L36.7898 122.893ZM49.4035 59.4741H115.625C117.727 59.4741 119.071 58.423 119.654 56.3207L124.034 33.7212C124.268 32.4365 123.976 31.327 123.158 30.3926C122.458 29.3415 121.465 28.8159 120.18 28.8159H33.9868L54.3088 34.9475L49.4035 59.4741Z" fill="#363636"/>
<path d="M198.023 25.8377L218.52 31.9693L200.3 122.893H163.51L188.037 0.26001H251.455L270.901 97.315L290.172 0.26001H326.962L302.436 122.893H239.192L219.746 25.8377H198.023Z" fill="url(#paint0_linear_1_3208)"/>
<defs>
<linearGradient id="paint0_linear_1_3208" x1="276.477" y1="-11.4192" x2="361.714" y2="-1.95242" gradientUnits="userSpaceOnUse">
<stop stop-color="#A28DF5"/>
<stop offset="1" stop-color="#4628C0"/>
</linearGradient>
</defs>
</svg>
