<svg width="240" height="21" viewBox="0 0 240 21" fill="none" xmlns="http://www.w3.org/2000/svg">
<path d="M6.3 21H0L4.2 0H24.42C24.98 0 25.49 0.12 25.95 0.360001C26.43 0.58 26.82 0.89 27.12 1.29C27.44 1.67 27.67 2.11 27.81 2.61C27.95 3.11 27.97 3.63 27.87 4.17L26.25 12.24C26.09 13.08 25.69 13.76 25.05 14.28C24.41 14.8 23.67 15.06 22.83 15.06H21.48L24.15 21H17.85L15.18 15.06H7.5L6.3 21ZM8.46 10.14H19.8C20.16 10.14 20.39 9.96 20.49 9.6L21.24 5.73C21.28 5.51 21.23 5.32 21.09 5.16C20.97 4.98 20.8 4.89 20.58 4.89H5.82L9.3 5.94L8.46 10.14Z" fill="#363636"/>
<path d="M27.7104 16.8L31.0704 0H50.6904L49.7004 4.89H32.6904L36.2004 5.94L35.7504 8.22H46.9704L46.0704 12.78H34.8204L34.3404 15.27C34.3004 15.49 34.3504 15.69 34.4904 15.87C34.6304 16.03 34.8104 16.11 35.0304 16.11H47.4504L46.4904 21H31.1604C30.6004 21 30.0804 20.89 29.6004 20.67C29.1404 20.43 28.7504 20.12 28.4304 19.74C28.1304 19.34 27.9104 18.89 27.7704 18.39C27.6304 17.87 27.6104 17.34 27.7104 16.8Z" fill="#363636"/>
<path d="M56.8889 0H70.7489C71.3489 0 71.8989 0.13 72.3989 0.39C72.9189 0.650001 73.3589 0.99 73.7189 1.41C74.0789 1.83 74.3289 2.32 74.4689 2.88C74.6289 3.42 74.6489 3.99 74.5289 4.59L74.1689 6.3H67.8689L67.9889 5.73C68.0289 5.51 67.9789 5.32 67.8389 5.16C67.6989 4.98 67.5189 4.89 67.2989 4.89H55.3589L58.8389 5.94L58.5989 7.2C58.5589 7.42 58.6089 7.62 58.7489 7.8C58.8889 7.96 59.0689 8.04 59.2889 8.04H64.0889C64.7489 8.04 65.3889 8.04 66.0089 8.04C66.6289 8.04 67.1789 8.04 67.6589 8.04C68.1389 8.04 68.5289 8.05 68.8289 8.07C69.1289 8.07 69.2789 8.07 69.2789 8.07C69.8589 8.11 70.3789 8.27 70.8389 8.55C71.3189 8.81 71.7189 9.15 72.0389 9.57C72.3789 9.99 72.6089 10.47 72.7289 11.01C72.8689 11.53 72.8789 12.08 72.7589 12.66L71.7089 17.91C71.5289 18.81 71.0789 19.55 70.3589 20.13C69.6589 20.71 68.8489 21 67.9289 21H54.2189C53.6189 21 53.0589 20.87 52.5389 20.61C52.0189 20.35 51.5889 20.01 51.2489 19.59C50.9089 19.17 50.6589 18.68 50.4989 18.12C50.3589 17.56 50.3489 16.98 50.4689 16.38L50.7989 14.7H57.0989L56.9789 15.27C56.9389 15.49 56.9889 15.69 57.1289 15.87C57.2689 16.03 57.4489 16.11 57.6689 16.11H69.4889L65.9789 15.06L66.3089 13.44C66.3489 13.22 66.2989 13.03 66.1589 12.87C66.0189 12.69 65.8389 12.6 65.6189 12.6H55.8989C55.2989 12.6 54.7389 12.47 54.2189 12.21C53.6989 11.95 53.2689 11.61 52.9289 11.19C52.5889 10.77 52.3389 10.28 52.1789 9.72C52.0389 9.16 52.0289 8.58 52.1489 7.98L53.1089 3.09C53.2889 2.19 53.7289 1.45 54.4289 0.870001C55.1489 0.29 55.9689 0 56.8889 0Z" fill="#363636"/>
<path d="M74.3686 16.8L77.7286 0H97.3486L96.3586 4.89H79.3486L82.8586 5.94L82.4086 8.22H93.6286L92.7286 12.78H81.4786L80.9986 15.27C80.9586 15.49 81.0086 15.69 81.1486 15.87C81.2886 16.03 81.4686 16.11 81.6886 16.11H94.1086L93.1486 21H77.8186C77.2586 21 76.7386 20.89 76.2586 20.67C75.7986 20.43 75.4086 20.12 75.0886 19.74C74.7886 19.34 74.5686 18.89 74.4286 18.39C74.2886 17.87 74.2686 17.34 74.3686 16.8Z" fill="#363636"/>
<path d="M103.337 21H97.0371L101.237 0H121.457C122.017 0 122.527 0.12 122.987 0.360001C123.467 0.58 123.857 0.89 124.157 1.29C124.477 1.67 124.707 2.11 124.847 2.61C124.987 3.11 125.007 3.63 124.907 4.17L123.287 12.24C123.127 13.08 122.727 13.76 122.087 14.28C121.447 14.8 120.707 15.06 119.867 15.06H118.517L121.187 21H114.887L112.217 15.06H104.537L103.337 21ZM105.497 10.14H116.837C117.197 10.14 117.427 9.96 117.527 9.6L118.277 5.73C118.317 5.51 118.267 5.32 118.127 5.16C118.007 4.98 117.837 4.89 117.617 4.89H102.857L106.337 5.94L105.497 10.14Z" fill="#363636"/>
<path d="M132.125 16.11H135.845L143.885 0H151.235L140.375 21H129.875L126.035 0H132.695L135.635 15.06L132.125 16.11Z" fill="#363636"/>
<path d="M156.31 4.38L159.82 5.43L156.7 21H150.4L154.6 0H165.46L168.79 16.62L172.09 0H178.39L174.19 21H163.36L160.03 4.38H156.31Z" fill="url(#paint0_linear_1_3390)"/>
<path d="M200.309 18.18C200.149 19.02 199.739 19.7 199.079 20.22C198.439 20.74 197.699 21 196.859 21H181.619C181.059 21 180.539 20.89 180.059 20.67C179.599 20.43 179.209 20.12 178.889 19.74C178.589 19.34 178.369 18.89 178.229 18.39C178.089 17.87 178.069 17.34 178.169 16.8L180.989 2.82C181.149 1.98 181.549 1.3 182.189 0.780001C182.829 0.26 183.569 0 184.409 0H199.679C200.219 0 200.719 0.12 201.179 0.360001C201.659 0.58 202.059 0.89 202.379 1.29C202.699 1.67 202.929 2.11 203.069 2.61C203.209 3.11 203.219 3.63 203.099 4.17L200.309 18.18ZM186.659 5.94L184.799 15.27C184.759 15.49 184.809 15.69 184.949 15.87C185.089 16.03 185.269 16.11 185.489 16.11H198.119L194.639 15.06L196.499 5.73C196.539 5.51 196.489 5.32 196.349 5.16C196.209 4.98 196.029 4.89 195.809 4.89H183.149L186.659 5.94Z" fill="url(#paint1_linear_1_3390)"/>
<path d="M232.829 0H239.279L234.749 21H223.709L221.099 8.04L214.259 21H202.889L206.729 0H213.209L210.599 15.75L206.909 16.8H210.419L219.179 0H225.119L228.959 16.8L232.829 0Z" fill="url(#paint2_linear_1_3390)"/>
<defs>
<linearGradient id="paint0_linear_1_3390" x1="210.299" y1="-1.99999" x2="250.551" y2="11.5609" gradientUnits="userSpaceOnUse">
<stop stop-color="#A28DF5"/>
<stop offset="1" stop-color="#4628C0"/>
</linearGradient>
<linearGradient id="paint1_linear_1_3390" x1="210.299" y1="-1.99999" x2="250.551" y2="11.5609" gradientUnits="userSpaceOnUse">
<stop stop-color="#A28DF5"/>
<stop offset="1" stop-color="#4628C0"/>
</linearGradient>
<linearGradient id="paint2_linear_1_3390" x1="210.299" y1="-1.99999" x2="250.551" y2="11.5609" gradientUnits="userSpaceOnUse">
<stop stop-color="#A28DF5"/>
<stop offset="1" stop-color="#4628C0"/>
</linearGradient>
</defs>
</svg>
