<svg width="23" height="23" viewBox="0 0 23 23" fill="none" xmlns="http://www.w3.org/2000/svg">
<rect x="0.793457" width="22.0785" height="22.0785" rx="11.0392" fill="#7961DB"/>
<mask id="mask0_1_3531" style="mask-type:alpha" maskUnits="userSpaceOnUse" x="3" y="2" width="18" height="18">
<circle cx="11.8322" cy="11.0404" r="8.27942" fill="#4318FF"/>
</mask>
<g mask="url(#mask0_1_3531)">
<rect x="1.89697" y="1.10547" width="18.4513" height="23.1824" fill="#BDADFF"/>
</g>
<g opacity="0.4">
<mask id="mask1_1_3531" style="mask-type:alpha" maskUnits="userSpaceOnUse" x="6" y="5" width="12" height="12">
<circle cx="11.8316" cy="11.0391" r="5.51962" fill="#4318FF"/>
</mask>
<g mask="url(#mask1_1_3531)">
<rect x="5.2085" y="4.41528" width="12.3009" height="15.4549" fill="#F6F7F9"/>
</g>
</g>
<path d="M8.54171 12.4196H7.58643L8.22328 9.23535H11.2893C11.3742 9.23535 11.4515 9.25355 11.5213 9.28994C11.5941 9.3233 11.6532 9.3703 11.6987 9.43096C11.7472 9.48858 11.7821 9.5553 11.8033 9.63111C11.8246 9.70693 11.8276 9.78578 11.8124 9.86766L11.5668 11.0913C11.5425 11.2187 11.4819 11.3218 11.3848 11.4007C11.2878 11.4795 11.1756 11.5189 11.0482 11.5189H10.8435L11.2483 12.4196H10.2931L9.88821 11.5189H8.72367L8.54171 12.4196ZM8.86924 10.7729H10.5887C10.6433 10.7729 10.6782 10.7456 10.6934 10.691L10.8071 10.1042C10.8132 10.0708 10.8056 10.042 10.7844 10.0178C10.7662 9.99048 10.7404 9.97683 10.707 9.97683H8.46893L8.99661 10.136L8.86924 10.7729Z" fill="#363636"/>
<path d="M12.7282 9.8995L13.2604 10.0587L12.7873 12.4196H11.832L12.4689 9.23535H14.1156L14.6206 11.7555L15.1209 9.23535H16.0762L15.4394 12.4196H13.7972L13.2923 9.8995H12.7282Z" fill="url(#paint0_linear_1_3531)"/>
<defs>
<linearGradient id="paint0_linear_1_3531" x1="14.7653" y1="8.93209" x2="16.9786" y2="9.1779" gradientUnits="userSpaceOnUse">
<stop stop-color="#A28DF5"/>
<stop offset="1" stop-color="#4628C0"/>
</linearGradient>
</defs>
</svg>
