<svg width="104" height="104" viewBox="0 0 104 104" fill="none" xmlns="http://www.w3.org/2000/svg">
<rect x="3.0875" y="2.8375" width="98.325" height="98.325" rx="49.1625" fill="white"/>
<rect x="3.0875" y="2.8375" width="98.325" height="98.325" rx="49.1625" stroke="#62D96B" stroke-width="5.175"/>
<path d="M27.6689 38.347C27.6689 36.8983 28.2445 35.5089 29.2689 34.4845C30.2933 33.46 31.6827 32.8845 33.1314 32.8845H71.3689C72.8177 32.8845 74.2071 33.46 75.2315 34.4845C76.2559 35.5089 76.8314 36.8983 76.8314 38.347V65.6595C76.8314 67.1083 76.2559 68.4977 75.2315 69.5221C74.2071 70.5465 72.8177 71.122 71.3689 71.122H33.1314C31.6827 71.122 30.2933 70.5465 29.2689 69.5221C28.2445 68.4977 27.6689 67.1083 27.6689 65.6595V38.347Z" stroke="#62D96B" stroke-width="5.4625" stroke-linecap="round" stroke-linejoin="round"/>
<path d="M27.6689 38.3459L52.2502 54.7334L76.8314 38.3459" stroke="#62D96B" stroke-width="5.4625" stroke-linecap="round" stroke-linejoin="round"/>
</svg>
