<svg width="17" height="17" viewBox="0 0 17 17" fill="none" xmlns="http://www.w3.org/2000/svg">
<path fill-rule="evenodd" clip-rule="evenodd" d="M8.29084 2.92896C11.3677 2.92896 13.8621 5.42328 13.8621 8.50018C13.8621 11.5771 11.3677 14.0714 8.29084 14.0714C5.21394 14.0714 2.71962 11.5771 2.71962 8.50018C2.71962 5.42328 5.21394 2.92896 8.29084 2.92896ZM14.875 8.50018C14.875 4.86385 11.9272 1.91602 8.29084 1.91602C4.6545 1.91602 1.70667 4.86385 1.70667 8.50018C1.70667 12.1365 4.6545 15.0843 8.29084 15.0843C11.9272 15.0843 14.875 12.1365 14.875 8.50018Z" fill="#7961DB"/>
<path fill-rule="evenodd" clip-rule="evenodd" d="M10.909 7.36391C10.7011 7.17678 10.3808 7.19364 10.1937 7.40155L8.29105 9.51563L6.38837 7.40155C6.20125 7.19364 5.88101 7.17678 5.6731 7.36391C5.46519 7.55103 5.44833 7.87127 5.63546 8.07918L7.91459 10.6115C8.01064 10.7183 8.14747 10.7792 8.29105 10.7792C8.43463 10.7792 8.57146 10.7183 8.66751 10.6115L10.9466 8.07918C11.1338 7.87127 11.1169 7.55103 10.909 7.36391Z" fill="#7961DB"/>
</svg>
